<?xml version="1.0" encoding="UTF-8"?>
<!DOCTYPE svg PUBLIC "-//W3C//DTD SVG 1.1//EN" "http://www.w3.org/Graphics/SVG/1.1/DTD/svg11.dtd">
<svg xmlns="http://www.w3.org/2000/svg" version="1.1" width="800px" height="800px" style="shape-rendering:geometricPrecision; text-rendering:geometricPrecision; image-rendering:optimizeQuality; fill-rule:evenodd; clip-rule:evenodd" xmlns:xlink="http://www.w3.org/1999/xlink">
<g><path style="opacity:0.989" fill="#0053fd" d="M 346.5,-0.5 C 381.5,-0.5 416.5,-0.5 451.5,-0.5C 592.122,22.6487 695.288,97.3154 761,223.5C 780.524,264.614 793.357,307.614 799.5,352.5C 799.5,384.5 799.5,416.5 799.5,448.5C 779.669,582.421 711.669,683.588 595.5,752C 548.693,777.215 499.026,793.049 446.5,799.5C 416.5,799.5 386.5,799.5 356.5,799.5C 223.855,780.608 122.688,714.274 53,600.5C 23.0819,546.801 5.2486,489.467 -0.5,428.5C -0.5,408.5 -0.5,388.5 -0.5,368.5C 11.5532,241.739 68.8865,141.239 171.5,67C 224.593,31.0228 282.926,8.52278 346.5,-0.5 Z M 368.5,49.5 C 472.191,44.3327 561.858,76.8327 637.5,147C 476.5,147.667 315.5,147.667 154.5,147C 214.625,90.446 285.959,57.946 368.5,49.5 Z M 132.5,171.5 C 133.496,171.414 134.329,171.748 135,172.5C 146.833,189 158.667,205.5 170.5,222C 148.952,341.407 127.786,460.907 107,580.5C 102.391,576.638 98.7245,571.971 96,566.5C 35.3355,452.143 35.3355,337.809 96,223.5C 106.454,204.912 118.62,187.579 132.5,171.5 Z M 677.5,194.5 C 721.063,254.861 743.063,322.528 743.5,397.5C 741.702,492.796 707.869,574.463 642,642.5C 634.649,649.352 627.149,656.019 619.5,662.5C 594.939,599.499 570.939,536.165 547.5,472.5C 547.608,471.558 547.941,470.725 548.5,470C 581.796,443.095 614.629,415.595 647,387.5C 657.492,323.208 667.659,258.875 677.5,194.5 Z M 336.5,226.5 C 375.168,226.333 413.835,226.5 452.5,227C 462.192,229.268 470.025,234.435 476,242.5C 482.119,250.84 484.119,260.174 482,270.5C 476.585,308.822 471.251,347.155 466,385.5C 461.432,398.401 452.599,406.901 439.5,411C 395.835,411.5 352.168,411.667 308.5,411.5C 317.515,349.746 326.848,288.079 336.5,226.5 Z M 294.5,495.5 C 328.84,495.167 363.173,495.5 397.5,496.5C 416.217,577.419 434.55,658.419 452.5,739.5C 385.013,748.838 320.18,739.838 258,712.5C 258.004,706.132 258.67,699.799 260,693.5C 271.826,627.543 283.326,561.543 294.5,495.5 Z"/></g>
</svg>
